<svg id="Group_6093" data-name="Group 6093" xmlns="http://www.w3.org/2000/svg" width="181.996" height="55.347" viewBox="0 0 181.996 55.347">
  <g id="Group_6086" data-name="Group 6086" transform="translate(0 0)">
    <rect id="Rectangle_18277" data-name="Rectangle 18277" width="181.996" height="55.347" rx="7" transform="translate(0 0)"/>
  </g>
  <g id="Group_6089" data-name="Group 6089" transform="translate(9.826 9.777)">
    <g id="Group_6087" data-name="Group 6087" transform="translate(0 8.281)">
      <path id="Path_10545" data-name="Path 10545" d="M425.424,1338.74c-2.952,5.123-1.076,12.9,2.189,17.612,1.63,2.357,3.28,4.473,5.54,4.473.042,0,.085,0,.129,0a6.817,6.817,0,0,0,2.571-.685,7.046,7.046,0,0,1,3.046-.721,6.623,6.623,0,0,1,2.9.7,6.141,6.141,0,0,0,2.777.666c2.545-.047,4.109-2.33,5.487-4.344a19.24,19.24,0,0,0,2.4-4.924l.01-.031a.286.286,0,0,0-.152-.351l-.021-.009a7.3,7.3,0,0,1-4.422-6.682,7.51,7.51,0,0,1,3.549-6.279l.028-.018a.286.286,0,0,0,.081-.4,8.259,8.259,0,0,0-6.5-3.528c-.184-.019-.375-.028-.566-.028a11.314,11.314,0,0,0-4.078,1.019,6.553,6.553,0,0,1-1.953.584,6.392,6.392,0,0,1-2.02-.591,9.791,9.791,0,0,0-3.561-.9l-.09,0A8.731,8.731,0,0,0,425.424,1338.74Z" transform="translate(-423.951 -1334.183)" fill="#fff"/>
    </g>
    <g id="Group_6088" data-name="Group 6088" transform="translate(13.893 0)">
      <path id="Path_10546" data-name="Path 10546" d="M615.318,1224.412a7.972,7.972,0,0,0-5.264,2.7,7.468,7.468,0,0,0-1.891,5.539.287.287,0,0,0,.262.248c.122.009.246.014.37.014a6.745,6.745,0,0,0,4.969-2.548,7.877,7.877,0,0,0,1.851-5.7A.288.288,0,0,0,615.318,1224.412Z" transform="translate(-608.118 -1224.412)" fill="#fff"/>
    </g>
  </g>
  <g id="Group_6092" data-name="Group 6092" transform="translate(49.157 9.111)">
    <g id="Group_6090" data-name="Group 6090" transform="translate(2.529 0)">
      <path id="Path_10547" data-name="Path 10547" d="M978.866,1222.466h3.423a5.013,5.013,0,0,1,2.391.556,4.064,4.064,0,0,1,1.625,1.539,4.572,4.572,0,0,1,0,4.46,4.062,4.062,0,0,1-1.625,1.538,5.006,5.006,0,0,1-2.391.556h-3.423Zm3.373,8.081a4.512,4.512,0,0,0,2.113-.476,3.4,3.4,0,0,0,1.408-1.328,4.1,4.1,0,0,0,0-3.9,3.4,3.4,0,0,0-1.408-1.328,4.515,4.515,0,0,0-2.113-.476H979.5v7.513Z" transform="translate(-978.866 -1221.947)" fill="#fff"/>
      <path id="Path_10548" data-name="Path 10548" d="M1103.775,1257.093a3.024,3.024,0,0,1-1.155-1.167,3.6,3.6,0,0,1,0-3.373,3.025,3.025,0,0,1,1.155-1.168,3.449,3.449,0,0,1,3.3,0,3.029,3.029,0,0,1,1.156,1.168,3.6,3.6,0,0,1,0,3.373,3.029,3.029,0,0,1-1.156,1.167,3.449,3.449,0,0,1-3.3,0Zm2.978-.482a2.49,2.49,0,0,0,.927-.964,3.092,3.092,0,0,0,0-2.817,2.491,2.491,0,0,0-.927-.964,2.724,2.724,0,0,0-2.657,0,2.483,2.483,0,0,0-.927.964,3.089,3.089,0,0,0,0,2.817,2.482,2.482,0,0,0,.927.964,2.725,2.725,0,0,0,2.657,0Z" transform="translate(-1092.896 -1248.296)" fill="#fff"/>
      <path id="Path_10549" data-name="Path 10549" d="M1205.309,1251.62l-2.446,6.449h-.58l-2.175-5.6-2.187,5.6h-.569l-2.447-6.449h.594l2.15,5.757,2.2-5.757h.531l2.187,5.745,2.174-5.745Z" transform="translate(-1178.608 -1248.902)" fill="#fff"/>
      <path id="Path_10550" data-name="Path 10550" d="M1356.884,1251.669a2.741,2.741,0,0,1,.7,2.026v3.768h-.618v-3.719a2.291,2.291,0,0,0-.55-1.656,2.041,2.041,0,0,0-1.539-.568,2.373,2.373,0,0,0-1.792.68,2.525,2.525,0,0,0-.655,1.828v3.435h-.618v-6.45h.593v1.4a2.454,2.454,0,0,1,.995-1.063,3.063,3.063,0,0,1,1.563-.383A2.587,2.587,0,0,1,1356.884,1251.669Z" transform="translate(-1323.684 -1248.296)" fill="#fff"/>
      <path id="Path_10551" data-name="Path 10551" d="M1462.049,1215.586h.618v9.168h-.618Z" transform="translate(-1425.6 -1215.586)" fill="#fff"/>
      <path id="Path_10552" data-name="Path 10552" d="M1497.036,1257.093a3.025,3.025,0,0,1-1.156-1.167,3.6,3.6,0,0,1,0-3.373,3.026,3.026,0,0,1,1.156-1.168,3.449,3.449,0,0,1,3.3,0,3.032,3.032,0,0,1,1.155,1.168,3.6,3.6,0,0,1,0,3.373,3.031,3.031,0,0,1-1.155,1.167,3.449,3.449,0,0,1-3.3,0Zm2.978-.482a2.485,2.485,0,0,0,.927-.964,3.089,3.089,0,0,0,0-2.817,2.485,2.485,0,0,0-.927-.964,2.723,2.723,0,0,0-2.656,0,2.487,2.487,0,0,0-.927.964,3.092,3.092,0,0,0,0,2.817,2.486,2.486,0,0,0,.927.964,2.724,2.724,0,0,0,2.656,0Z" transform="translate(-1456.49 -1248.296)" fill="#fff"/>
      <path id="Path_10553" data-name="Path 10553" d="M1602.918,1251.576a2.369,2.369,0,0,1,.643,1.8v4.09h-.593v-1.149a2.144,2.144,0,0,1-.9.884,3,3,0,0,1-1.421.315,2.617,2.617,0,0,1-1.7-.506,1.753,1.753,0,0,1-.05-2.638,2.76,2.76,0,0,1,1.835-.5h2.211v-.519a1.817,1.817,0,0,0-.488-1.371,1.981,1.981,0,0,0-1.427-.469,3.434,3.434,0,0,0-1.229.223,3.076,3.076,0,0,0-.995.593l-.309-.445a3.431,3.431,0,0,1,1.161-.673,4.222,4.222,0,0,1,1.421-.241A2.568,2.568,0,0,1,1602.918,1251.576Zm-.822,5.06a2.254,2.254,0,0,0,.846-1.075v-1.211h-2.2a2.187,2.187,0,0,0-1.377.346,1.158,1.158,0,0,0-.426.951,1.191,1.191,0,0,0,.47.995,2.112,2.112,0,0,0,1.322.365A2.427,2.427,0,0,0,1602.1,1256.637Z" transform="translate(-1551.593 -1248.296)" fill="#fff"/>
      <path id="Path_10554" data-name="Path 10554" d="M1698.773,1215.586v9.168h-.606v-1.519a2.771,2.771,0,0,1-1.075,1.161,3.031,3.031,0,0,1-1.569.408,3.2,3.2,0,0,1-1.631-.42,3,3,0,0,1-1.143-1.161,3.412,3.412,0,0,1-.414-1.693,3.45,3.45,0,0,1,.414-1.7,2.95,2.95,0,0,1,1.143-1.161,3.247,3.247,0,0,1,1.631-.414,2.976,2.976,0,0,1,1.55.408,2.905,2.905,0,0,1,1.081,1.137v-4.213Zm-1.885,8.316a2.482,2.482,0,0,0,.927-.964,3.091,3.091,0,0,0,0-2.818,2.483,2.483,0,0,0-.927-.963,2.721,2.721,0,0,0-2.656,0,2.48,2.48,0,0,0-.927.963,3.089,3.089,0,0,0,0,2.818,2.479,2.479,0,0,0,.927.964,2.725,2.725,0,0,0,2.656,0Z" transform="translate(-1638.514 -1215.586)" fill="#fff"/>
      <path id="Path_10555" data-name="Path 10555" d="M1846.561,1257.093a3.027,3.027,0,0,1-1.155-1.167,3.6,3.6,0,0,1,0-3.373,3.027,3.027,0,0,1,1.155-1.168,3.449,3.449,0,0,1,3.3,0,3.026,3.026,0,0,1,1.155,1.168,3.594,3.594,0,0,1,0,3.373,3.025,3.025,0,0,1-1.155,1.167,3.449,3.449,0,0,1-3.3,0Zm2.978-.482a2.487,2.487,0,0,0,.927-.964,3.088,3.088,0,0,0,0-2.817,2.488,2.488,0,0,0-.927-.964,2.724,2.724,0,0,0-2.657,0,2.485,2.485,0,0,0-.927.964,3.092,3.092,0,0,0,0,2.817,2.485,2.485,0,0,0,.927.964,2.725,2.725,0,0,0,2.657,0Z" transform="translate(-1779.65 -1248.296)" fill="#fff"/>
      <path id="Path_10556" data-name="Path 10556" d="M1960.94,1251.669a2.743,2.743,0,0,1,.7,2.026v3.768h-.618v-3.719a2.29,2.29,0,0,0-.55-1.656,2.041,2.041,0,0,0-1.538-.568,2.37,2.37,0,0,0-1.791.68,2.522,2.522,0,0,0-.655,1.828v3.435h-.618v-6.45h.593v1.4a2.454,2.454,0,0,1,.994-1.063,3.064,3.064,0,0,1,1.563-.383A2.587,2.587,0,0,1,1960.94,1251.669Z" transform="translate(-1882.173 -1248.296)" fill="#fff"/>
      <path id="Path_10557" data-name="Path 10557" d="M2098.373,1240.4a1.548,1.548,0,0,1-.587.34,2.311,2.311,0,0,1-.735.117,1.74,1.74,0,0,1-1.3-.463,1.758,1.758,0,0,1-.458-1.291v-4.213h-1.186v-.531h1.186v-1.409h.618v1.409h2.051v.531h-2.051v4.151a1.362,1.362,0,0,0,.3.958,1.16,1.16,0,0,0,.9.327,1.434,1.434,0,0,0,1-.359Z" transform="translate(-2009.981 -1231.638)" fill="#fff"/>
      <path id="Path_10558" data-name="Path 10558" d="M2178.452,1218.959a2.743,2.743,0,0,1,.7,2.026v3.768h-.617v-3.719a2.289,2.289,0,0,0-.55-1.656,2.043,2.043,0,0,0-1.538-.568,2.373,2.373,0,0,0-1.792.68,2.525,2.525,0,0,0-.654,1.829v3.435h-.618v-9.168H2174v4.065a2.361,2.361,0,0,1,.988-1.031,3.129,3.129,0,0,1,1.545-.365A2.589,2.589,0,0,1,2178.452,1218.959Z" transform="translate(-2083.277 -1215.586)" fill="#fff"/>
      <path id="Path_10559" data-name="Path 10559" d="M2280.594,1254.388h-5.548a2.692,2.692,0,0,0,.383,1.34,2.453,2.453,0,0,0,.97.909,3.11,3.11,0,0,0,2.545.092,2.275,2.275,0,0,0,.9-.673l.358.408a2.759,2.759,0,0,1-1.056.778,3.68,3.68,0,0,1-3.1-.148,3.046,3.046,0,0,1-1.18-1.161,3.337,3.337,0,0,1-.426-1.693,3.509,3.509,0,0,1,.4-1.687,2.966,2.966,0,0,1,1.106-1.168,3.2,3.2,0,0,1,3.158-.006,2.947,2.947,0,0,1,1.1,1.156,3.476,3.476,0,0,1,.4,1.68Zm-4.287-2.576a2.306,2.306,0,0,0-.871.852,2.774,2.774,0,0,0-.377,1.242H2280a2.589,2.589,0,0,0-.37-1.236,2.4,2.4,0,0,0-2.1-1.161A2.469,2.469,0,0,0,2276.307,1251.812Z" transform="translate(-2176.709 -1248.296)" fill="#fff"/>
    </g>
    <g id="Group_6091" data-name="Group 6091" transform="translate(0 16.717)">
      <path id="Path_10560" data-name="Path 10560" d="M957.018,1451.356h-7.39l-1.457,3.421h-2.829l6.651-14.78h2.7l6.672,14.78H958.5Zm-.908-2.154-2.787-6.461-2.766,6.461Z" transform="translate(-945.341 -1439.786)" fill="#fff"/>
      <path id="Path_10561" data-name="Path 10561" d="M1188.535,1485.5a5.182,5.182,0,0,1,2.038,2.027,6.56,6.56,0,0,1,0,6.049,5.158,5.158,0,0,1-2.038,2.037,5.983,5.983,0,0,1-2.945.718,4.552,4.552,0,0,1-3.611-1.52v5.469h-2.639v-15.371h2.513v1.478a4.084,4.084,0,0,1,1.615-1.2,5.467,5.467,0,0,1,2.122-.4A5.985,5.985,0,0,1,1188.535,1485.5Zm-.845,7.6a3.942,3.942,0,0,0,0-5.109,3.19,3.19,0,0,0-2.4-.971,3.4,3.4,0,0,0-1.71.433,3.132,3.132,0,0,0-1.2,1.235,4.116,4.116,0,0,0,0,3.716,3.126,3.126,0,0,0,1.2,1.235,3.392,3.392,0,0,0,1.71.433A3.19,3.19,0,0,0,1187.691,1493.1Z" transform="translate(-1161.688 -1481.192)" fill="#fff"/>
      <path id="Path_10562" data-name="Path 10562" d="M1380.549,1485.5a5.177,5.177,0,0,1,2.037,2.027,6.557,6.557,0,0,1,0,6.049,5.152,5.152,0,0,1-2.037,2.037,5.984,5.984,0,0,1-2.945.718,4.552,4.552,0,0,1-3.611-1.52v5.469h-2.639v-15.371h2.513v1.478a4.08,4.08,0,0,1,1.615-1.2,5.463,5.463,0,0,1,2.122-.4A5.986,5.986,0,0,1,1380.549,1485.5Zm-.844,7.6a3.944,3.944,0,0,0,0-5.109,3.192,3.192,0,0,0-2.4-.971,3.4,3.4,0,0,0-1.71.433,3.128,3.128,0,0,0-1.2,1.235,4.114,4.114,0,0,0,0,3.716,3.123,3.123,0,0,0,1.2,1.235,3.391,3.391,0,0,0,1.71.433A3.192,3.192,0,0,0,1379.7,1493.1Z" transform="translate(-1339.217 -1481.192)" fill="#fff"/>
      <path id="Path_10563" data-name="Path 10563" d="M1629.983,1451.914a6.9,6.9,0,0,1-2.523-1.288l.95-2.133a7.47,7.47,0,0,0,2.228,1.172,8.085,8.085,0,0,0,2.65.454,4.578,4.578,0,0,0,2.46-.528,1.6,1.6,0,0,0,.813-1.393,1.349,1.349,0,0,0-.454-1.045,3.2,3.2,0,0,0-1.151-.644q-.7-.232-1.9-.527a22.052,22.052,0,0,1-2.734-.8,4.492,4.492,0,0,1-1.795-1.256,3.385,3.385,0,0,1-.75-2.312,3.946,3.946,0,0,1,.665-2.228,4.506,4.506,0,0,1,2.006-1.594,8.136,8.136,0,0,1,3.283-.591,10.628,10.628,0,0,1,2.66.338,7.354,7.354,0,0,1,2.259.971l-.865,2.132a8.585,8.585,0,0,0-2.027-.866,7.586,7.586,0,0,0-2.048-.3,4.279,4.279,0,0,0-2.417.549,1.694,1.694,0,0,0-.792,1.457,1.317,1.317,0,0,0,.454,1.035,3.287,3.287,0,0,0,1.151.634q.7.232,1.9.527a20.024,20.024,0,0,1,2.7.792,4.636,4.636,0,0,1,1.805,1.256,3.313,3.313,0,0,1,.75,2.281,3.892,3.892,0,0,1-.666,2.217,4.525,4.525,0,0,1-2.016,1.584,8.215,8.215,0,0,1-3.294.591A11.277,11.277,0,0,1,1629.983,1451.914Z" transform="translate(-1576.004 -1437.197)" fill="#fff"/>
      <path id="Path_10564" data-name="Path 10564" d="M1805.079,1466.586a3.11,3.11,0,0,1-1.129.57,5.1,5.1,0,0,1-1.4.19,3.986,3.986,0,0,1-2.872-.971,3.737,3.737,0,0,1-1.013-2.829v-5.427H1796.8v-2.111h1.858v-2.576h2.639v2.576h3.019v2.111H1801.3v5.363a1.783,1.783,0,0,0,.4,1.257,1.505,1.505,0,0,0,1.162.433,2.316,2.316,0,0,0,1.477-.464Z" transform="translate(-1732.572 -1452.207)" fill="#fff"/>
      <path id="Path_10565" data-name="Path 10565" d="M1920.917,1495.592a5.386,5.386,0,0,1-2.143-2.059,6.158,6.158,0,0,1,0-5.965,5.407,5.407,0,0,1,2.143-2.048,6.842,6.842,0,0,1,6.187,0,5.415,5.415,0,0,1,2.143,2.048,6.158,6.158,0,0,1,0,5.965,5.394,5.394,0,0,1-2.143,2.059,6.845,6.845,0,0,1-6.187,0Zm5.49-2.492a3.91,3.91,0,0,0,0-5.109,3.225,3.225,0,0,0-2.407-.971,3.19,3.19,0,0,0-2.4.971,3.943,3.943,0,0,0,0,5.109,3.19,3.19,0,0,0,2.4.972A3.226,3.226,0,0,0,1926.407,1493.1Z" transform="translate(-1844.63 -1481.192)" fill="#fff"/>
      <path id="Path_10566" data-name="Path 10566" d="M2117.379,1484.781v2.513a3.343,3.343,0,0,0-.613-.063,3.189,3.189,0,0,0-2.407.9,3.578,3.578,0,0,0-.866,2.586v5.469h-2.639v-11.275h2.512v1.647Q2114.507,1484.781,2117.379,1484.781Z" transform="translate(-2022.933 -1481.192)" fill="#fff"/>
      <path id="Path_10567" data-name="Path 10567" d="M2224.788,1491.39h-8.846a3.064,3.064,0,0,0,1.214,1.974,3.979,3.979,0,0,0,2.438.729,4.113,4.113,0,0,0,3.063-1.225l1.414,1.626a4.761,4.761,0,0,1-1.921,1.372,7.614,7.614,0,0,1-5.891-.274,5.319,5.319,0,0,1-2.186-2.059,5.811,5.811,0,0,1-.771-2.988,5.9,5.9,0,0,1,.75-2.967,5.321,5.321,0,0,1,2.08-2.058,6.069,6.069,0,0,1,3-.739,5.916,5.916,0,0,1,2.946.729,5.164,5.164,0,0,1,2.027,2.048,6.2,6.2,0,0,1,.729,3.051Q2224.831,1490.883,2224.788,1491.39Zm-7.8-3.748a3.154,3.154,0,0,0-1.065,2h6.4a3.109,3.109,0,0,0-1.034-1.985,3.148,3.148,0,0,0-2.154-.76A3.189,3.189,0,0,0,2216.986,1487.642Z" transform="translate(-2117.653 -1481.192)" fill="#fff"/>
    </g>
  </g>
</svg>
