<svg id="Group_6770" data-name="Group 6770" xmlns="http://www.w3.org/2000/svg" width="39.133" height="45.536" viewBox="0 0 39.133 45.536">
  <path id="Path_12150" data-name="Path 12150" d="M165.983,3.434l.613-1.373a1.054,1.054,0,0,1,.95-.639.943.943,0,0,1,.393.086L177.378,5.8,183.7,7.115,168.528.212A2.366,2.366,0,0,0,167.546,0,2.476,2.476,0,0,0,165.3,1.48l-.77,1.723a3.788,3.788,0,0,1,.721.078Z" transform="translate(-160.043 0.001)" fill="#fff"/>
  <path id="Path_12151" data-name="Path 12151" d="M126.627,62.211l.646-3.076a1.043,1.043,0,0,1,1-.838.986.986,0,0,1,.2.021l18.74,3.892h7L128.77,56.925a2.413,2.413,0,0,0-.492-.05,2.465,2.465,0,0,0-2.4,1.968l-.746,3.551h0a3.815,3.815,0,0,1,1.165-.182Z" transform="translate(-123.854 -52.25)" fill="#fff"/>
  <path id="Path_12152" data-name="Path 12152" d="M453.415,195.146h-2.082a.712.712,0,0,0,0,1.423h2.609a.712.712,0,0,0,.694-.553c.462-2.03,2.719-1.692,2.971-1.648a.711.711,0,0,0,.841-.7v-7.006a.711.711,0,0,0-.841-.7c-.1.018-2.5.436-2.971-1.648a.712.712,0,0,0-.694-.554h-2.609a.712.712,0,0,0,0,1.423h2.082a3.648,3.648,0,0,0,3.611,2.249V192.9a3.649,3.649,0,0,0-3.611,2.25Z" transform="translate(-422.874 -168.818)" fill="#fff"/>
  <path id="Path_12153" data-name="Path 12153" d="M245.925,279.905l.517-.22h0a.821.821,0,0,0,.457-1.084l-1.711-3.807a.831.831,0,0,0-.288-.345l-.587-2.809a.713.713,0,0,0-.7-.566h-13.4l-.887-1.2.946-4.609a2.271,2.271,0,0,0-1.5-2.615,2.247,2.247,0,0,0-2.726,1.163l-2.851,5.92a.712.712,0,0,0-.052.469l1.346,5.855a.712.712,0,0,0,.357.468l6.516,3.495a.794.794,0,0,0,.011.6l1.711,3.807a.882.882,0,0,0,.814.518.912.912,0,0,0,.357-.072l.691-.295.679,1.7a.722.722,0,0,0,.925.4.712.712,0,0,0,.4-.925l-.691-1.728,8.353-3.56,2.775,5.858a.725.725,0,0,0,.948.338.712.712,0,0,0,.339-.948Zm-21.335-9.78,2.743-5.7h0a.821.821,0,0,1,1-.43.846.846,0,0,1,.553.979l-1.009,4.92a.711.711,0,0,0,.125.566l1.29,1.743a.711.711,0,0,0,.572.288h13.177l.435,2.083-10.717,4.568-6.946-3.725Zm9.581,13.242-1.236-2.75,11.169-4.76,1.236,2.75Z" transform="translate(-213.88 -241.19)" fill="#fff"/>
  <path id="Path_12154" data-name="Path 12154" d="M270.525,189.245a7.115,7.115,0,1,0-7.034-8.132,3.683,3.683,0,0,1,1.528-.4,5.689,5.689,0,1,1,3.274,6.654l-.29,1.412h0a7.081,7.081,0,0,0,2.521.468Z" transform="translate(-250.96 -160.783)" fill="#fff"/>
  <path id="Path_12155" data-name="Path 12155" d="M146.068,140.01H111.827a2.468,2.468,0,0,0-2.446,2.49v14.942a2.468,2.468,0,0,0,2.446,2.491h5.889l-.327-1.423h-5.562a1.047,1.047,0,0,1-1.023-1.067V142.5a1.047,1.047,0,0,1,1.023-1.067h34.241a1.047,1.047,0,0,1,1.023,1.067v14.942a1.047,1.047,0,0,1-1.023,1.067h-4.946a2.173,2.173,0,0,1,.083.275l.24,1.149h4.623a2.468,2.468,0,0,0,2.446-2.491V142.5a2.468,2.468,0,0,0-2.446-2.49Z" transform="translate(-109.381 -128.625)" fill="#fff"/>
  <path id="Path_12156" data-name="Path 12156" d="M158.162,185.183h2.082a.712.712,0,0,0,0-1.423h-2.609a.711.711,0,0,0-.694.554c-.463,2.03-2.718,1.693-2.971,1.648a.711.711,0,0,0-.841.7v7.006a.711.711,0,0,0,.841.7c.1-.019,2.5-.436,2.971,1.648a.711.711,0,0,0,.694.553h.06l.685-1.423h-.217a3.648,3.648,0,0,0-3.611-2.249v-5.462a3.649,3.649,0,0,0,3.611-2.25Z" transform="translate(-149.571 -168.817)" fill="#fff"/>
  <path id="Path_12157" data-name="Path 12157" d="M322.4,212.376a1.188,1.188,0,0,1-.965-.023,1.222,1.222,0,0,1-.681-.725.712.712,0,0,0-1.354.438,2.646,2.646,0,0,0,1.46,1.589,2.78,2.78,0,0,0,.285.107v.416a.712.712,0,1,0,1.423,0v-.363a2.388,2.388,0,0,0,.42-.142,1.95,1.95,0,0,0,1.126-2.324,2.516,2.516,0,0,0-1.986-1.582c-.546-.166-.889-.285-1.041-.551h0a.682.682,0,0,1-.016-.67,1.076,1.076,0,0,1,1.1-.3,1.108,1.108,0,0,1,.775.735.712.712,0,1,0,1.375-.366,2.521,2.521,0,0,0-1.755-1.731v-.529a.712.712,0,1,0-1.423,0v.532h0a2.065,2.065,0,0,0-1.284.916,2.1,2.1,0,0,0-.009,2.122,2.87,2.87,0,0,0,1.864,1.207c.661.2.94.313,1.035.629h0a.55.55,0,0,1-.351.619Z" transform="translate(-302.294 -188.917)" fill="#fff"/>
</svg>
