<svg xmlns="http://www.w3.org/2000/svg" width="141.65" height="81.334" viewBox="0 0 141.65 81.334">
  <path id="Path_12159" data-name="Path 12159" d="M65.247,3.331c4.788,0,9.565.273,14.323.7a138.632,138.632,0,0,1,26.589,5.123,82.459,82.459,0,0,1,12.591,4.678,43.64,43.64,0,0,1,10.956,7.224c.32.3.635.611.934.935l.848,1-.056-.05a26.33,26.33,0,0,1,4.331,6.365,25.342,25.342,0,0,1,2.218,7.341,31.358,31.358,0,0,1-1.924,15.322,33.655,33.655,0,0,1-4.366,7.926,37.523,37.523,0,0,1-6.316,6.557,49.382,49.382,0,0,1-16.246,8.6,68.8,68.8,0,0,1-18.4,3.087,126.78,126.78,0,0,1-18.9-.828c-3.945-.4-10.626-1.5-10.682-.349-.026.6,1.051,1.253,3.016,1.879a45.054,45.054,0,0,0,8.3,1.611,107.314,107.314,0,0,0,25.624.182,68.334,68.334,0,0,0,12.586-2.8,61.286,61.286,0,0,0,6.016-2.339c.99-.419,1.939-.93,2.909-1.4.477-.248.944-.521,1.416-.778s.944-.521,1.4-.808A40.987,40.987,0,0,0,136.047,59.5a36.011,36.011,0,0,0,5.59-18.055,30.386,30.386,0,0,0-1.2-9.518,28.423,28.423,0,0,0-4.28-8.629,33.892,33.892,0,0,0-6.7-6.84,49.824,49.824,0,0,0-8.022-5.037,86.11,86.11,0,0,0-15.7-5.941,140.669,140.669,0,0,0-16.3-3.637,145.807,145.807,0,0,0-48.893.47A79.843,79.843,0,0,0,25.3,6.6a57.694,57.694,0,0,0-7.215,3.436,44.965,44.965,0,0,0-6.661,4.541,34.758,34.758,0,0,0-5.666,5.865,29.5,29.5,0,0,0-4,7.2A26.83,26.83,0,0,0,.392,41.715a33.018,33.018,0,0,0,5.3,12.948A39.492,39.492,0,0,0,15.4,64.591a38.7,38.7,0,0,0,6.016,3.521c.528.243,1.066.475,1.6.7l1.625.606c1.071.434,2.188.727,3.29,1.071A88.341,88.341,0,0,0,40.765,72.8l-.071.015c.629-.051,1.264-.081,1.914-.091s1.3-.045,1.965-.066c1.325,0,2.666-.086,4.011-.131A27.58,27.58,0,0,0,56.2,71.188H56.2l1.234-.258,1.224-.3q1.226-.288,2.417-.571a27.75,27.75,0,0,0,6.839-2.192c.98-.571.706-.935-.665-1.177-.6-.106-.127-.657-1.864-.3,0,0-.122.06-.122.06l.041-.035c-2.488.278-5.143.909-7.885,1.475a75.49,75.49,0,0,1-8.271,1.4,54.864,54.864,0,0,1-19.775-1.409l-2.361-.733c-.787-.253-1.543-.581-2.315-.864a32.48,32.48,0,0,1-4.407-2.137,36.243,36.243,0,0,1-7.7-6.032A34.753,34.753,0,0,1,6.82,50.253a28.493,28.493,0,0,1-3.112-9.129,23.887,23.887,0,0,1,.4-9.508,25.475,25.475,0,0,1,4.072-8.654,33.938,33.938,0,0,1,8.672-8.194A54.048,54.048,0,0,1,27.686,9.232a74.821,74.821,0,0,1,11.8-3.405L41,5.534l1.528-.258c1.021-.167,2.036-.353,3.057-.5,2.046-.273,4.092-.566,6.148-.748,4.5-.439,9.022-.57,13.6-.687Z" transform="translate(0 0)" fill="#ffd422"/>
</svg>
