<svg id="Group_6108" data-name="Group 6108" xmlns="http://www.w3.org/2000/svg" width="15.318" height="15.325" viewBox="0 0 15.318 15.325">
  <g id="Group_6107" data-name="Group 6107">
    <rect id="Rectangle_18" data-name="Rectangle 18" width="3.163" height="10.217" transform="translate(0.304 5.108)" fill="#fff"/>
    <path id="Path_843" data-name="Path 843" d="M103.18,194.627a1.885,1.885,0,1,0-1.87-1.885A1.878,1.878,0,0,0,103.18,194.627Z" transform="translate(-101.31 -190.857)" fill="#fff"/>
  </g>
  <path id="Path_844" data-name="Path 844" d="M111.179,202c0-1.436.661-2.292,1.927-2.292,1.163,0,1.722.821,1.722,2.292v5.363h3.148V200.89c0-2.737-1.551-4.06-3.718-4.06a3.561,3.561,0,0,0-3.079,1.688v-1.376h-3.034v10.216h3.034Z" transform="translate(-102.657 -192.034)" fill="#fff"/>
</svg>
