<svg xmlns="http://www.w3.org/2000/svg" width="15.325" height="15.325" viewBox="0 0 15.325 15.325">
  <g id="vuesax_linear_youtube" data-name="vuesax/linear/youtube" transform="translate(-864 -469)">
    <g id="youtube" transform="translate(864 469)">
      <path id="BG_1" data-name="BG 1" d="M0,0H15.325V15.325H0Z" fill="none" opacity="0.58"/>
      <path id="Vector" d="M9.578,10.217H3.193A3.016,3.016,0,0,1,0,7.024V3.193A3.016,3.016,0,0,1,3.193,0H9.578a3.016,3.016,0,0,1,3.193,3.193V7.024A3.016,3.016,0,0,1,9.578,10.217Z" transform="translate(1.277 2.554)" fill="none" stroke="#fff" stroke-linecap="round" stroke-linejoin="round" stroke-width="1"/>
      <path id="Vector-2" data-name="Vector" d="M1.149.174l1.6.958a.737.737,0,0,1,0,1.341l-1.6.958C.511,3.814,0,3.495,0,2.792V.877C0,.046.511-.209,1.149.174Z" transform="translate(6.13 5.892)" fill="none" stroke="#fff" stroke-linecap="round" stroke-linejoin="round" stroke-width="1"/>
      <path id="Vector-3" data-name="Vector" d="M0,0H15.325V15.325H0Z" fill="none" opacity="0"/>
    </g>
  </g>
</svg>
