<svg id="Group_6772" data-name="Group 6772" xmlns="http://www.w3.org/2000/svg" width="39.972" height="40.065" viewBox="0 0 39.972 40.065">
  <path id="Path_11292" data-name="Path 11292" d="M459.663,87.808V59.558A3.565,3.565,0,0,0,456.1,56h-4.128a3.565,3.565,0,0,0-3.561,3.561v28.25a.5.5,0,0,0,.075.263l4.565,7.344a1.224,1.224,0,0,0,.985.489,1.242,1.242,0,0,0,1.01-.527l4.539-7.306a.49.49,0,0,0,.076-.263Zm-3.842,4.438h-3.564l-2.583-4.157H458.4Zm2.844-28.683h-9.254V62.357h9.254Zm-9.254,23.529V64.561h9.254V87.092Zm2.563-30.1H456.1a2.566,2.566,0,0,1,2.563,2.563v1.8h-9.254v-1.8a2.566,2.566,0,0,1,2.563-2.563Zm2.253,37.818a.233.233,0,0,1-.189.094.23.23,0,0,1-.163-.056l-1-1.607H455.2Z" transform="translate(-419.691 -55.84)" fill="#fff"/>
  <path id="Path_11293" data-name="Path 11293" d="M480.62,192.39c-1.965,0-3.026,3.679-3.026,7.141s1.061,7.141,3.026,7.141,3.026-3.679,3.026-7.141-1.061-7.141-3.026-7.141Zm0,13.284c-.847,0-2.028-2.337-2.028-6.143s1.181-6.143,2.028-6.143,2.028,2.337,2.028,6.143S481.467,205.674,480.62,205.674Z" transform="translate(-446.273 -180.083)" fill="#fff"/>
  <path id="Path_11294" data-name="Path 11294" d="M126,93.6a.5.5,0,0,0,.264.276,3.993,3.993,0,0,0,5.263-2.041l4.594-10.413h4.3v.655a.5.5,0,0,0,1,0v-.655h4.636l4.594,10.413a3.985,3.985,0,0,0,5.263,2.041.5.5,0,0,0,.255-.658l-5.2-11.8h1.895a.5.5,0,1,0,0-1h-2.307c-.009,0-.017,0-.026.006l-4.853-11a5.816,5.816,0,0,0-4.251-9.265v-.724h1.123a.5.5,0,0,0,.5-.5V56.227a.5.5,0,0,0-.5-.5h-1.123v-1a.5.5,0,1,0-1,0v1h-1.06a.5.5,0,0,0-.5.5v2.713a.5.5,0,0,0,.5.5h1.06v.73a5.823,5.823,0,0,0-4,9.43l-4.776,10.827c-.006,0-.011,0-.017,0h-2.307a.5.5,0,1,0,0,1h1.886l-5.2,11.8A.5.5,0,0,0,126,93.6Zm13.865-36.87h2.182v1.715H139.87Zm1.557,23.695v-.655a.5.5,0,0,0-1,0v.655h-3.862l3.816-8.649a5.473,5.473,0,0,0,1.411-.029l3.829,8.679h-4.2Zm11.8,12.591a2.975,2.975,0,0,1-1.657-1.583l-8.784-19.91a5.825,5.825,0,0,0,2.164-1.276l10.094,22.881a2.968,2.968,0,0,1-1.818-.112ZM140.992,61.139a4.834,4.834,0,1,1-4.834,4.834A4.84,4.84,0,0,1,140.992,61.139Zm-3.812,9.237a5.815,5.815,0,0,0,2.2,1.2l-4.038,9.154-4.723,10.7a3,3,0,0,1-3.474,1.695Z" transform="translate(-125.971 -54.231)" fill="#fff"/>
</svg>
