<svg xmlns="http://www.w3.org/2000/svg" width="17.925" height="14.568" viewBox="0 0 17.925 14.568">
  <path id="Path_839" data-name="Path 839" d="M44.444,152.212a10.46,10.46,0,0,0,16.091-9.288,7.455,7.455,0,0,0,1.834-1.9,7.334,7.334,0,0,1-2.112.579,3.683,3.683,0,0,0,1.617-2.035,7.378,7.378,0,0,1-2.335.893,3.681,3.681,0,0,0-6.267,3.355,10.437,10.437,0,0,1-7.58-3.843,3.682,3.682,0,0,0,1.138,4.91,3.666,3.666,0,0,1-1.666-.461,3.683,3.683,0,0,0,2.95,3.653,3.682,3.682,0,0,1-1.66.062,3.679,3.679,0,0,0,3.435,2.555A7.4,7.4,0,0,1,44.444,152.212Z" transform="translate(-44.444 -139.296)" fill="#fff"/>
</svg>
