<svg id="Group_6104" data-name="Group 6104" xmlns="http://www.w3.org/2000/svg" width="40" height="40" viewBox="0 0 40 40">
  <circle id="Ellipse_1063" data-name="Ellipse 1063" cx="20" cy="20" r="20" fill="#fff"/>
  <g id="vuesax_linear_whatsapp" data-name="vuesax/linear/whatsapp" transform="translate(8 8)">
    <g id="whatsapp">
      <path id="BG_1" data-name="BG 1" d="M0,0H23.8V23.8H0Z" fill="none" opacity="0.58"/>
      <path id="Vector" d="M4.859,18.445A9.916,9.916,0,1,0,0,9.917a10.539,10.539,0,0,0,1.289,4.958L0,19.833Z" transform="translate(1.983 1.983)" fill="#25d366"/>
      <path id="Vector-2" data-name="Vector" d="M8.925,7.287a1.134,1.134,0,0,1-.112.486,1.841,1.841,0,0,1-.3.455,2.015,2.015,0,0,1-.733.527,2.247,2.247,0,0,1-.871.17A3.729,3.729,0,0,1,5.448,8.6a7.853,7.853,0,0,1-1.537-.884A12.844,12.844,0,0,1,2.445,6.466,12.685,12.685,0,0,1,1.2,5.007,7.953,7.953,0,0,1,.322,3.485,3.754,3.754,0,0,1,0,2.026a2.305,2.305,0,0,1,.161-.861A2.054,2.054,0,0,1,.675.419,1.31,1.31,0,0,1,1.6,0a.841.841,0,0,1,.362.08.728.728,0,0,1,.3.25L3.3,1.789a1.527,1.527,0,0,1,.179.312.7.7,0,0,1,.063.272.605.605,0,0,1-.094.317,1.518,1.518,0,0,1-.25.317l-.34.353a.239.239,0,0,0-.072.178.4.4,0,0,0,.013.1c.013.036.027.062.036.089a3.7,3.7,0,0,0,.416.571c.2.232.416.469.648.705s.474.455.711.656a3.43,3.43,0,0,0,.577.411l.08.036a.309.309,0,0,0,.112.018.246.246,0,0,0,.183-.076l.34-.335a1.371,1.371,0,0,1,.322-.25.6.6,0,0,1,.317-.094.714.714,0,0,1,.273.058,1.729,1.729,0,0,1,.313.174L8.608,6.654a.677.677,0,0,1,.246.286A.914.914,0,0,1,8.925,7.287Z" transform="translate(7.437 7.437)" fill="#fff"/>
      <path id="Vector-3" data-name="Vector" d="M0,0H23.8V23.8H0Z" fill="none" opacity="0"/>
    </g>
  </g>
</svg>
