<svg id="Group_6085" data-name="Group 6085" xmlns="http://www.w3.org/2000/svg" width="182" height="55.348" viewBox="0 0 182 55.348">
  <g id="Group_6084" data-name="Group 6084" transform="translate(0 0)">
    <g id="Group_6047" data-name="Group 6047" transform="translate(0 0)">
      <g id="Group_6046" data-name="Group 6046">
        <rect id="Rectangle_18276" data-name="Rectangle 18276" width="182" height="55.348" rx="7"/>
      </g>
    </g>
    <g id="Group_6074" data-name="Group 6074" transform="translate(48.29 9.053)">
      <g id="Group_6062" data-name="Group 6062" transform="translate(1.057)">
        <g id="Group_6048" data-name="Group 6048" transform="translate(0 0.521)">
          <path id="Path_10517" data-name="Path 10517" d="M960.711,305.4h-5.034l-1.1,2.442h-.682l3.992-8.679h.633l3.992,8.679h-.682Zm-.236-.533-2.281-5.009-2.269,5.009Z" transform="translate(-953.892 -299.161)" fill="#fff"/>
        </g>
        <g id="Group_6049" data-name="Group 6049" transform="translate(8.394 2.728)">
          <path id="Path_10518" data-name="Path 10518" d="M1071.252,328.316l-2.926,6.472h-.632l-2.914-6.472h.657l2.579,5.79,2.6-5.79Z" transform="translate(-1064.78 -328.316)" fill="#fff"/>
        </g>
        <g id="Group_6050" data-name="Group 6050" transform="translate(15.436 2.678)">
          <path id="Path_10519" data-name="Path 10519" d="M1162.427,328.275a2.376,2.376,0,0,1,.645,1.8v4.1h-.6V333.03a2.152,2.152,0,0,1-.9.886,3,3,0,0,1-1.426.316,2.628,2.628,0,0,1-1.7-.508,1.758,1.758,0,0,1-.05-2.647,2.769,2.769,0,0,1,1.841-.5h2.219v-.521a1.823,1.823,0,0,0-.49-1.376,1.988,1.988,0,0,0-1.432-.471,3.449,3.449,0,0,0-1.234.223,3.1,3.1,0,0,0-1,.6l-.31-.446a3.446,3.446,0,0,1,1.166-.676,4.233,4.233,0,0,1,1.426-.242A2.577,2.577,0,0,1,1162.427,328.275Zm-.825,5.077a2.263,2.263,0,0,0,.849-1.079v-1.215h-2.207a2.2,2.2,0,0,0-1.382.347,1.162,1.162,0,0,0-.428.955,1.2,1.2,0,0,0,.471,1,2.119,2.119,0,0,0,1.327.366A2.434,2.434,0,0,0,1161.6,333.352Z" transform="translate(-1157.815 -327.661)" fill="#fff"/>
        </g>
        <g id="Group_6051" data-name="Group 6051" transform="translate(23.049 0.149)">
          <path id="Path_10520" data-name="Path 10520" d="M1258.532,295.109a.47.47,0,0,1-.149-.353.508.508,0,0,1,.509-.508.5.5,0,0,1,.36.143.472.472,0,0,1,.149.353.508.508,0,0,1-.508.508A.5.5,0,0,1,1258.532,295.109Zm.05,1.717h.62V303.3h-.62Z" transform="translate(-1258.383 -294.247)" fill="#fff"/>
        </g>
        <g id="Group_6052" data-name="Group 6052" transform="translate(26.483)">
          <path id="Path_10521" data-name="Path 10521" d="M1303.751,292.281h.62v9.2h-.62Z" transform="translate(-1303.751 -292.281)" fill="#fff"/>
        </g>
        <g id="Group_6053" data-name="Group 6053" transform="translate(29.137 2.678)">
          <path id="Path_10522" data-name="Path 10522" d="M1343.412,328.275a2.375,2.375,0,0,1,.645,1.8v4.1h-.595V333.03a2.155,2.155,0,0,1-.905.886,3,3,0,0,1-1.426.316,2.626,2.626,0,0,1-1.7-.508,1.758,1.758,0,0,1-.05-2.647,2.768,2.768,0,0,1,1.841-.5h2.22v-.521a1.824,1.824,0,0,0-.49-1.376,1.989,1.989,0,0,0-1.432-.471,3.45,3.45,0,0,0-1.233.223,3.1,3.1,0,0,0-1,.6l-.31-.446a3.448,3.448,0,0,1,1.165-.676,4.235,4.235,0,0,1,1.426-.242A2.576,2.576,0,0,1,1343.412,328.275Zm-.824,5.077a2.262,2.262,0,0,0,.849-1.079v-1.215h-2.207a2.2,2.2,0,0,0-1.383.347,1.163,1.163,0,0,0-.428.955,1.2,1.2,0,0,0,.471,1,2.12,2.12,0,0,0,1.326.366A2.434,2.434,0,0,0,1342.588,333.352Z" transform="translate(-1338.8 -327.661)" fill="#fff"/>
        </g>
        <g id="Group_6054" data-name="Group 6054" transform="translate(36.948)">
          <path id="Path_10523" data-name="Path 10523" d="M1446.873,295.374a2.961,2.961,0,0,1,1.147,1.165,3.462,3.462,0,0,1,.415,1.7,3.426,3.426,0,0,1-.415,1.7,3.014,3.014,0,0,1-1.147,1.166,3.219,3.219,0,0,1-1.637.421,3.015,3.015,0,0,1-1.568-.415,2.821,2.821,0,0,1-1.085-1.159v1.525h-.6v-9.2h.62v4.2a2.793,2.793,0,0,1,1.078-1.122,3.034,3.034,0,0,1,1.55-.4A3.258,3.258,0,0,1,1446.873,295.374Zm-.335,5.251a2.477,2.477,0,0,0,.936-.967,3.1,3.1,0,0,0,0-2.827,2.48,2.48,0,0,0-.936-.967,2.609,2.609,0,0,0-1.339-.347,2.576,2.576,0,0,0-1.333.347,2.494,2.494,0,0,0-.93.967,3.1,3.1,0,0,0,0,2.827,2.49,2.49,0,0,0,.93.967,2.575,2.575,0,0,0,1.333.347A2.608,2.608,0,0,0,1446.538,300.625Z" transform="translate(-1441.988 -292.281)" fill="#fff"/>
        </g>
        <g id="Group_6055" data-name="Group 6055" transform="translate(45.317)">
          <path id="Path_10524" data-name="Path 10524" d="M1552.547,292.281h.62v9.2h-.62Z" transform="translate(-1552.547 -292.281)" fill="#fff"/>
        </g>
        <g id="Group_6056" data-name="Group 6056" transform="translate(47.846 2.678)">
          <path id="Path_10525" data-name="Path 10525" d="M1592.132,331.1h-5.567a2.7,2.7,0,0,0,.385,1.345,2.46,2.46,0,0,0,.973.911,2.925,2.925,0,0,0,1.382.322,2.958,2.958,0,0,0,1.172-.229,2.284,2.284,0,0,0,.9-.676l.359.409a2.757,2.757,0,0,1-1.06.781,3.692,3.692,0,0,1-3.106-.149,3.059,3.059,0,0,1-1.184-1.165,3.347,3.347,0,0,1-.427-1.7,3.514,3.514,0,0,1,.4-1.692,2.968,2.968,0,0,1,1.109-1.172,3.206,3.206,0,0,1,3.167-.006,2.951,2.951,0,0,1,1.1,1.159,3.484,3.484,0,0,1,.4,1.686Zm-4.3-2.585a2.313,2.313,0,0,0-.874.855,2.784,2.784,0,0,0-.379,1.246h4.96a2.6,2.6,0,0,0-.372-1.24,2.409,2.409,0,0,0-2.108-1.165A2.48,2.48,0,0,0,1587.829,328.51Z" transform="translate(-1585.957 -327.661)" fill="#fff"/>
        </g>
        <g id="Group_6057" data-name="Group 6057" transform="translate(58.434 2.678)">
          <path id="Path_10526" data-name="Path 10526" d="M1727.413,333.811a3.03,3.03,0,0,1-1.159-1.172,3.608,3.608,0,0,1,0-3.385,3.03,3.03,0,0,1,1.159-1.172,3.459,3.459,0,0,1,3.31,0,3.04,3.04,0,0,1,1.16,1.172,3.608,3.608,0,0,1,0,3.385,3.039,3.039,0,0,1-1.16,1.172,3.46,3.46,0,0,1-3.31,0Zm2.988-.484a2.494,2.494,0,0,0,.93-.967,3.1,3.1,0,0,0,0-2.827,2.5,2.5,0,0,0-.93-.967,2.733,2.733,0,0,0-2.666,0,2.491,2.491,0,0,0-.93.967,3.1,3.1,0,0,0,0,2.827,2.488,2.488,0,0,0,.93.967,2.732,2.732,0,0,0,2.666,0Z" transform="translate(-1725.832 -327.661)" fill="#fff"/>
        </g>
        <g id="Group_6058" data-name="Group 6058" transform="translate(66.828 2.678)">
          <path id="Path_10527" data-name="Path 10527" d="M1841.8,328.368a2.752,2.752,0,0,1,.707,2.033v3.782h-.62v-3.732a2.3,2.3,0,0,0-.552-1.661,2.049,2.049,0,0,0-1.544-.57,2.381,2.381,0,0,0-1.8.682,2.533,2.533,0,0,0-.657,1.835v3.447h-.62v-6.472h.595v1.4a2.46,2.46,0,0,1,1-1.066,3.076,3.076,0,0,1,1.568-.384A2.6,2.6,0,0,1,1841.8,328.368Z" transform="translate(-1836.72 -327.661)" fill="#fff"/>
        </g>
        <g id="Group_6059" data-name="Group 6059" transform="translate(77.292 1.314)">
          <path id="Path_10528" data-name="Path 10528" d="M1979.234,317.12a1.557,1.557,0,0,1-.589.341,2.321,2.321,0,0,1-.738.118,1.746,1.746,0,0,1-1.3-.465,1.765,1.765,0,0,1-.459-1.3v-4.228h-1.19v-.533h1.19v-1.413h.62v1.413h2.058v.533h-2.058v4.166a1.365,1.365,0,0,0,.3.961,1.163,1.163,0,0,0,.9.329,1.438,1.438,0,0,0,1-.36Z" transform="translate(-1974.956 -309.644)" fill="#fff"/>
        </g>
        <g id="Group_6060" data-name="Group 6060" transform="translate(83.293)">
          <path id="Path_10529" data-name="Path 10529" d="M2059.314,295.666a2.754,2.754,0,0,1,.707,2.033v3.782h-.621v-3.732a2.3,2.3,0,0,0-.551-1.661,2.048,2.048,0,0,0-1.544-.57,2.378,2.378,0,0,0-1.8.682,2.532,2.532,0,0,0-.657,1.835v3.447h-.62v-9.2h.62v4.079a2.373,2.373,0,0,1,.991-1.035,3.141,3.141,0,0,1,1.551-.366A2.6,2.6,0,0,1,2059.314,295.666Z" transform="translate(-2054.231 -292.281)" fill="#fff"/>
        </g>
        <g id="Group_6061" data-name="Group 6061" transform="translate(90.943 2.678)">
          <path id="Path_10530" data-name="Path 10530" d="M2161.461,331.1H2155.9a2.7,2.7,0,0,0,.384,1.345,2.455,2.455,0,0,0,.973.911,2.927,2.927,0,0,0,1.383.322,2.957,2.957,0,0,0,1.171-.229,2.29,2.29,0,0,0,.9-.676l.359.409a2.757,2.757,0,0,1-1.06.781,3.689,3.689,0,0,1-3.1-.149,3.049,3.049,0,0,1-1.185-1.165,3.346,3.346,0,0,1-.428-1.7,3.523,3.523,0,0,1,.4-1.692,2.973,2.973,0,0,1,1.11-1.172,3.207,3.207,0,0,1,3.168-.006,2.954,2.954,0,0,1,1.1,1.159,3.487,3.487,0,0,1,.4,1.686Zm-4.3-2.585a2.315,2.315,0,0,0-.874.855,2.778,2.778,0,0,0-.378,1.246h4.959a2.592,2.592,0,0,0-.372-1.24,2.408,2.408,0,0,0-2.108-1.165A2.481,2.481,0,0,0,2157.159,328.51Z" transform="translate(-2155.287 -327.661)" fill="#fff"/>
        </g>
      </g>
      <g id="Group_6073" data-name="Group 6073" transform="translate(0 16.455)">
        <g id="Group_6063" data-name="Group 6063" transform="translate(0 0.663)">
          <path id="Path_10531" data-name="Path 10531" d="M950.866,525.7h2.547v5.777a8.1,8.1,0,0,1-2.609,1.367,10.021,10.021,0,0,1-3.065.476,8.264,8.264,0,0,1-4-.963,7.149,7.149,0,0,1-2.8-2.661,7.74,7.74,0,0,1,0-7.662,7.133,7.133,0,0,1,2.806-2.661,8.367,8.367,0,0,1,4.028-.963,8.8,8.8,0,0,1,3.313.6,6.506,6.506,0,0,1,2.505,1.76l-1.7,1.657a5.446,5.446,0,0,0-4-1.657,5.651,5.651,0,0,0-2.723.642,4.679,4.679,0,0,0-1.864,1.8,5.182,5.182,0,0,0-.673,2.65,5.1,5.1,0,0,0,.673,2.609,4.821,4.821,0,0,0,1.864,1.822,5.46,5.46,0,0,0,2.7.663,5.831,5.831,0,0,0,2.982-.745Z" transform="translate(-939.933 -518.406)" fill="#fff"/>
        </g>
        <g id="Group_6064" data-name="Group 6064" transform="translate(15.861 4.183)">
          <path id="Path_10532" data-name="Path 10532" d="M1152.326,575.512a5.279,5.279,0,0,1-2.1-2.019,6.036,6.036,0,0,1,0-5.85,5.3,5.3,0,0,1,2.1-2.009,6.711,6.711,0,0,1,6.067,0,5.307,5.307,0,0,1,2.1,2.009,6.034,6.034,0,0,1,0,5.85,5.284,5.284,0,0,1-2.1,2.019,6.71,6.71,0,0,1-6.067,0Zm5.384-2.443a3.835,3.835,0,0,0,0-5.011,3.163,3.163,0,0,0-2.36-.952,3.13,3.13,0,0,0-2.35.952,3.867,3.867,0,0,0,0,5.011,3.129,3.129,0,0,0,2.35.953A3.162,3.162,0,0,0,1157.709,573.068Z" transform="translate(-1149.468 -564.91)" fill="#fff"/>
        </g>
        <g id="Group_6065" data-name="Group 6065" transform="translate(29.217 4.183)">
          <path id="Path_10533" data-name="Path 10533" d="M1328.762,575.512a5.282,5.282,0,0,1-2.1-2.019,6.038,6.038,0,0,1,0-5.85,5.305,5.305,0,0,1,2.1-2.009,6.712,6.712,0,0,1,6.067,0,5.307,5.307,0,0,1,2.1,2.009,6.035,6.035,0,0,1,0,5.85,5.284,5.284,0,0,1-2.1,2.019,6.711,6.711,0,0,1-6.067,0Zm5.384-2.443a3.835,3.835,0,0,0,0-5.011,3.163,3.163,0,0,0-2.36-.952,3.129,3.129,0,0,0-2.35.952,3.867,3.867,0,0,0,0,5.011,3.128,3.128,0,0,0,2.35.953A3.162,3.162,0,0,0,1334.145,573.068Z" transform="translate(-1325.904 -564.91)" fill="#fff"/>
        </g>
        <g id="Group_6066" data-name="Group 6066" transform="translate(42.573 4.183)">
          <path id="Path_10534" data-name="Path 10534" d="M1514.226,565.034v9.38q0,5.839-5.964,5.839a11.067,11.067,0,0,1-3.023-.4,6.42,6.42,0,0,1-2.361-1.17l1.16-1.946a5.54,5.54,0,0,0,1.832.963,7.192,7.192,0,0,0,2.247.362,3.711,3.711,0,0,0,2.671-.828,3.385,3.385,0,0,0,.849-2.526v-.58a4.255,4.255,0,0,1-1.615,1.1,5.7,5.7,0,0,1-2.092.373,6,6,0,0,1-2.847-.673,5.05,5.05,0,0,1-2.008-1.895,5.313,5.313,0,0,1-.735-2.8,5.259,5.259,0,0,1,.735-2.785,5.005,5.005,0,0,1,2.008-1.874,6.079,6.079,0,0,1,2.847-.663,5.836,5.836,0,0,1,2.185.393,4.036,4.036,0,0,1,1.646,1.2v-1.47Zm-3.489,7.486a2.987,2.987,0,0,0,.942-2.288,2.931,2.931,0,0,0-.942-2.257,3.809,3.809,0,0,0-4.845,0,2.929,2.929,0,0,0-.942,2.257,2.986,2.986,0,0,0,.942,2.288,3.775,3.775,0,0,0,4.845,0Z" transform="translate(-1502.34 -564.91)" fill="#fff"/>
        </g>
        <g id="Group_6067" data-name="Group 6067" transform="translate(57.854)">
          <path id="Path_10535" data-name="Path 10535" d="M1704.214,509.653h2.588v15.364h-2.588Z" transform="translate(-1704.214 -509.653)" fill="#fff"/>
        </g>
        <g id="Group_6068" data-name="Group 6068" transform="translate(62.927 4.183)">
          <path id="Path_10536" data-name="Path 10536" d="M1782.494,571.391h-8.676a3,3,0,0,0,1.191,1.936,3.9,3.9,0,0,0,2.392.714,4.031,4.031,0,0,0,3-1.2l1.387,1.594a4.671,4.671,0,0,1-1.884,1.346,7.466,7.466,0,0,1-5.777-.269,5.228,5.228,0,0,1-2.143-2.019,5.7,5.7,0,0,1-.755-2.93,5.791,5.791,0,0,1,.735-2.909,5.221,5.221,0,0,1,2.04-2.019,5.953,5.953,0,0,1,2.94-.725,5.8,5.8,0,0,1,2.889.714,5.064,5.064,0,0,1,1.988,2.009,6.09,6.09,0,0,1,.714,2.992Q1782.535,570.894,1782.494,571.391Zm-7.651-3.675a3.1,3.1,0,0,0-1.046,1.957h6.275a3.055,3.055,0,0,0-1.014-1.947,3.087,3.087,0,0,0-2.112-.745A3.122,3.122,0,0,0,1774.843,567.716Z" transform="translate(-1771.229 -564.91)" fill="#fff"/>
        </g>
        <g id="Group_6069" data-name="Group 6069" transform="translate(82.681 0.87)">
          <path id="Path_10537" data-name="Path 10537" d="M2041.436,521.763a4.77,4.77,0,0,1,2.143,1.781,5.441,5.441,0,0,1,0,5.5,4.746,4.746,0,0,1-2.143,1.791,8.021,8.021,0,0,1-3.282.621h-3.272v4.183h-2.692V521.142h5.964A8.019,8.019,0,0,1,2041.436,521.763Zm-.735,6.668a2.952,2.952,0,0,0,0-4.266,4.136,4.136,0,0,0-2.671-.745h-3.148v5.756h3.148A4.137,4.137,0,0,0,2040.7,528.431Z" transform="translate(-2032.19 -521.142)" fill="#fff"/>
        </g>
        <g id="Group_6070" data-name="Group 6070" transform="translate(97.466)">
          <path id="Path_10538" data-name="Path 10538" d="M2227.5,509.653h2.589v15.364H2227.5Z" transform="translate(-2227.503 -509.653)" fill="#fff"/>
        </g>
        <g id="Group_6071" data-name="Group 6071" transform="translate(102.663 4.183)">
          <path id="Path_10539" data-name="Path 10539" d="M2304.909,566.08a4.522,4.522,0,0,1,1.294,3.531v6.481h-2.444v-1.346a3,3,0,0,1-1.356,1.108,5.3,5.3,0,0,1-2.122.383,5.2,5.2,0,0,1-2.174-.425,3.352,3.352,0,0,1-1.439-1.18,2.989,2.989,0,0,1-.508-1.708,2.927,2.927,0,0,1,1.108-2.392,5.5,5.5,0,0,1,3.489-.9h2.858v-.166a2.266,2.266,0,0,0-.694-1.781,3,3,0,0,0-2.06-.621,5.949,5.949,0,0,0-1.832.29,4.511,4.511,0,0,0-1.522.808l-1.015-1.885a6.3,6.3,0,0,1,2.092-1.015,9.307,9.307,0,0,1,2.588-.352A5.4,5.4,0,0,1,2304.909,566.08Zm-2.361,7.827a2.422,2.422,0,0,0,1.066-1.273V571.35h-2.671q-2.236,0-2.236,1.47a1.319,1.319,0,0,0,.559,1.118,2.561,2.561,0,0,0,1.553.414A3.34,3.34,0,0,0,2302.548,573.907Z" transform="translate(-2296.16 -564.91)" fill="#fff"/>
        </g>
        <g id="Group_6072" data-name="Group 6072" transform="translate(113.762 4.307)">
          <path id="Path_10540" data-name="Path 10540" d="M2455.186,566.551l-5.177,11.948a5.568,5.568,0,0,1-1.76,2.536,4.217,4.217,0,0,1-2.506.735,5.159,5.159,0,0,1-1.636-.269,3.618,3.618,0,0,1-1.324-.745l1.036-1.9a2.815,2.815,0,0,0,.88.559,2.692,2.692,0,0,0,1.025.207,1.765,1.765,0,0,0,1.128-.352,3.115,3.115,0,0,0,.818-1.18l.186-.435-4.824-11.1h2.692l3.479,8.179,3.5-8.179Z" transform="translate(-2442.782 -566.551)" fill="#fff"/>
        </g>
      </g>
    </g>
    <g id="Group_6083" data-name="Group 6083" transform="translate(10.23 9.153)">
      <g id="Group_6076" data-name="Group 6076" transform="translate(21.034 13.701)">
        <g id="Group_6075" data-name="Group 6075">
          <path id="Path_10541" data-name="Path 10541" d="M719.382,479.954l-6.958-4.015-5.723,5.532,5.23,5.056,7.451-4.3a1.312,1.312,0,0,0,0-2.272Z" transform="translate(-706.701 -475.939)" fill="#fff"/>
        </g>
      </g>
      <g id="Group_6078" data-name="Group 6078" transform="translate(1.138)">
        <g id="Group_6077" data-name="Group 6077">
          <path id="Path_10542" data-name="Path 10542" d="M468.3,307.957l-7.657-4.42-16.78-8.6,18.953,18.321Z" transform="translate(-443.865 -294.937)" fill="#fff"/>
        </g>
      </g>
      <g id="Group_6080" data-name="Group 6080" transform="translate(1.416 20.145)">
        <g id="Group_6079" data-name="Group 6079">
          <path id="Path_10543" data-name="Path 10543" d="M447.543,579.117l16.531-9.106,7.136-4.119-4.992-4.826Z" transform="translate(-447.543 -561.066)" fill="#fff"/>
        </g>
      </g>
      <g id="Group_6082" data-name="Group 6082" transform="translate(0 0.741)">
        <g id="Group_6081" data-name="Group 6081">
          <path id="Path_10544" data-name="Path 10544" d="M428.853,304.73l-.018,37,19.147-18.51Z" transform="translate(-428.835 -304.73)" fill="#fff"/>
        </g>
      </g>
    </g>
  </g>
</svg>
