<svg xmlns="http://www.w3.org/2000/svg" width="47" height="30.066" viewBox="0 0 47 30.066">
  <path id="Path_12158" data-name="Path 12158" d="M106.537,122.38h41.127a2.947,2.947,0,0,1,2.936,2.937V149.51a2.947,2.947,0,0,1-2.936,2.937H106.537a2.947,2.947,0,0,1-2.936-2.937V125.317a2.947,2.947,0,0,1,2.936-2.937Zm6.328,10.475a3.941,3.941,0,1,1,0-6.652,3.927,3.927,0,0,1,.621-.322l.045-.017a3.944,3.944,0,1,1,.115,7.374,3.983,3.983,0,0,1-.783-.383Zm-1.321-1.12.136-.054a3.932,3.932,0,0,1-.338-3.671,3.873,3.873,0,0,1,.336-.634l-.134-.054a2.342,2.342,0,1,0,0,4.413Zm5.095-3.864a2.34,2.34,0,0,0-1.657-.684,2.372,2.372,0,0,0-.855.157l-.032.015a2.347,2.347,0,0,0-1.274,1.268,2.335,2.335,0,0,0,.669,2.708,2.343,2.343,0,0,0,3.15-3.463ZM149,142.165H143.25a.8.8,0,0,1,0-1.6H149V125.317a1.336,1.336,0,0,0-1.334-1.335H106.538a1.336,1.336,0,0,0-1.334,1.335v15.245h30.209a.8.8,0,1,1,0,1.6H105.2v1.814h30.209a.8.8,0,1,1,0,1.6H105.2v3.928a1.336,1.336,0,0,0,1.334,1.335h41.127A1.336,1.336,0,0,0,149,149.509V145.58H143.25a.8.8,0,0,1,0-1.6H149Zm-7.22-1.678a.8.8,0,0,1-1.527.469.917.917,0,0,0-.372-.493.925.925,0,0,0-1.43.676.792.792,0,0,0,.188.6,2.137,2.137,0,0,0,.956.579,3.673,3.673,0,0,1,1.656,1.067,2.344,2.344,0,0,1,.551,1.777,2.51,2.51,0,0,1-1.669,2.128v.756a.8.8,0,0,1-1.6,0v-.731a2.522,2.522,0,0,1-1.647-1.659.8.8,0,0,1,1.527-.469.918.918,0,0,0,.372.493.932.932,0,0,0,.6.149.932.932,0,0,0,.825-.825.793.793,0,0,0-.187-.6,2.137,2.137,0,0,0-.956-.579,3.661,3.661,0,0,1-1.656-1.067,2.339,2.339,0,0,1-.551-1.777,2.52,2.52,0,0,1,1.669-2.127V138.1a.8.8,0,1,1,1.6,0v.731a2.522,2.522,0,0,1,1.647,1.659Z" transform="translate(-103.601 -122.38)" fill="#fff"/>
</svg>
